<svg width="19" height="20" viewBox="0 0 19 20" fill="none" xmlns="http://www.w3.org/2000/svg">
<path d="M9.53471 4.01829C11.3187 4.01829 12.522 4.78891 13.2082 5.43283L15.8894 2.81494C14.2427 1.28429 12.0998 0.344849 9.53471 0.344849C5.81907 0.344849 2.61005 2.47713 1.04779 5.58055L4.11951 7.96623C4.89013 5.67555 7.02242 4.01829 9.53471 4.01829Z" fill="#EA4335"/>
<path d="M18.6552 10.0563C18.6552 9.27516 18.5919 8.70514 18.4546 8.11401H9.53485V11.6396H14.7706C14.665 12.5158 14.095 13.8353 12.8283 14.722L15.8262 17.0443C17.6207 15.387 18.6552 12.9486 18.6552 10.0563Z" fill="#4285F4"/>
<path d="M4.13023 11.7242C3.92963 11.1331 3.81352 10.4996 3.81352 9.84522C3.81352 9.1907 3.92963 8.55737 4.11964 7.96625L1.04783 5.58057C0.403994 6.86841 0.0344849 8.31457 0.0344849 9.84522C0.0344849 11.3758 0.403994 12.822 1.04783 14.1098L4.13023 11.7242Z" fill="#FBBC05"/>
<path d="M9.5347 19.3455C12.0998 19.3455 14.2532 18.5011 15.826 17.0443L12.8281 14.722C12.0259 15.2815 10.9492 15.6721 9.5347 15.6721C7.02241 15.6721 4.89013 14.0147 4.1301 11.7241L1.05829 14.1097C2.62055 17.2132 5.81897 19.3455 9.5347 19.3455Z" fill="#34A853"/>
</svg>
