<svg width="236" height="79" viewBox="0 0 236 79" fill="none" xmlns="http://www.w3.org/2000/svg">
<path d="M23.3463 32.6538C23.3463 36.7005 21.0116 39.6058 15.6679 39.6058H8.71594V25.9093H15.6679C21.0635 25.9093 23.3463 28.5553 23.3463 32.6538ZM3.99481 22.0183V58.1791H8.71594V43.3931H14.4228L23.035 58.1791H28.69L19.6109 43.0299C25.6809 41.681 28.223 37.2712 28.223 32.6538C28.223 26.7394 24.1764 22.0183 15.6679 22.0183H3.99481ZM51.2787 33.2764C56.1555 33.2764 60.3059 36.3373 60.254 41.8886H42.3034C42.8222 36.3373 46.6613 33.2764 51.2787 33.2764ZM64.5601 49.4113H59.4758C58.4382 52.4722 55.7404 54.6512 51.4862 54.6512C46.6613 54.6512 42.6146 51.4865 42.2515 45.7277H64.9752C65.0789 44.742 65.1308 43.9119 65.1308 42.8743C65.1308 35.0922 59.7352 29.2816 51.4862 29.2816C43.1853 29.2816 37.4266 34.9366 37.4266 43.9119C37.4266 52.9391 43.3929 58.646 51.4862 58.646C58.542 58.646 63.1075 54.5993 64.5601 49.4113ZM73.2303 43.9119C73.2303 52.9391 78.989 58.646 87.0824 58.646C94.1382 58.646 98.7555 54.7031 100.208 49.0481H95.1239C94.0863 52.6279 91.2847 54.6512 87.0824 54.6512C81.8943 54.6512 78.0552 50.9677 78.0552 43.9119C78.0552 36.9599 81.8943 33.2764 87.0824 33.2764C91.2847 33.2764 94.1382 35.4554 95.1239 38.8795H100.208C98.7555 32.9132 94.1382 29.2816 87.0824 29.2816C78.989 29.2816 73.2303 34.9884 73.2303 43.9119ZM110.139 58.1791H114.86V29.7485H110.139V58.1791ZM112.578 25.1311C114.29 25.1311 115.69 23.7304 115.69 21.9145C115.69 20.0987 114.29 18.6979 112.578 18.6979C110.762 18.6979 109.361 20.0987 109.361 21.9145C109.361 23.7304 110.762 25.1311 112.578 25.1311ZM131.26 34.9884V29.7485H126.538V71.668H131.26V52.9391C133.023 55.8445 136.707 58.646 141.895 58.646C149.521 58.646 155.384 52.6797 155.384 43.86C155.384 34.9884 149.521 29.2816 141.895 29.2816C136.707 29.2816 132.972 31.9794 131.26 34.9884ZM150.559 43.86C150.559 50.5526 146.149 54.4956 140.909 54.4956C135.773 54.4956 131.26 50.6045 131.26 43.9119C131.26 37.3231 135.773 33.3802 140.909 33.3802C146.149 33.3802 150.559 37.1674 150.559 43.86ZM177.318 33.2764C182.195 33.2764 186.345 36.3373 186.293 41.8886H168.343C168.862 36.3373 172.701 33.2764 177.318 33.2764ZM190.6 49.4113H185.515C184.478 52.4722 181.78 54.6512 177.526 54.6512C172.701 54.6512 168.654 51.4865 168.291 45.7277H191.015C191.118 44.742 191.17 43.9119 191.17 42.8743C191.17 35.0922 185.775 29.2816 177.526 29.2816C169.225 29.2816 163.466 34.9366 163.466 43.9119C163.466 52.9391 169.432 58.646 177.526 58.646C184.581 58.646 189.147 54.5993 190.6 49.4113Z" fill="white"/>
<path d="M200.619 58.1791H207.882V21.9664H200.619V58.1791ZM219.831 49.2556C219.831 55.8445 223.515 58.1791 229.014 58.1791H233.579V52.0572H230.207C227.924 52.0572 227.146 51.2271 227.146 49.3075V35.4035H233.579V29.4372H227.146V22.3296H219.831V29.4372H216.407V35.4035H219.831V49.2556Z" fill="#9372F1"/>
<rect x="164.748" y="1.66751" width="22.403" height="28.8624" rx="5.89552" transform="rotate(45 164.748 1.66751)" stroke="white" stroke-width="2.35821"/>
<line x1="164.512" y1="8.75427" x2="173.502" y2="17.7443" stroke="white" stroke-width="2.35821" stroke-linecap="round"/>
<line x1="162.229" y1="14.0831" x2="168.174" y2="20.0281" stroke="white" stroke-width="2.35821" stroke-linecap="round"/>
<line x1="156.9" y1="16.3669" x2="165.89" y2="25.357" stroke="white" stroke-width="2.35821" stroke-linecap="round"/>
<line x1="156.138" y1="23.2183" x2="159.038" y2="26.1183" stroke="white" stroke-width="2.35821" stroke-linecap="round"/>
</svg>
